<?xml version="1.0" encoding="iso-8859-1"?>
<!-- Generator: Adobe Illustrator 19.0.0, SVG Export Plug-In . SVG Version: 6.00 Build 0)  -->
<svg version="1.1" id="Capa_1" xmlns="http://www.w3.org/2000/svg" xmlns:xlink="http://www.w3.org/1999/xlink" x="0px" y="0px"
	 viewBox="0 0 511.999 511.999" style="enable-background:new 0 0 511.999 511.999;" xml:space="preserve">
<path style="fill:#C88C64;" d="M126.213,66.357c-1.958-11.26-10.625-26.944-23.018-37.23l19.254-19.15
	c17.834,13.752,29.873,34.81,33.114,49.857L126.213,66.357z"/>
<path style="fill:#A5DC69;" d="M163.624,27.498c38.282,26.704,79.292,10.385,102.444-3.53
	C244.331,12.151,204.196-1.414,163.624,27.498z"/>
<path style="fill:#46C373;" d="M259.643,322.478L259.643,322.478c-21.239-39.557-34.802-82.775-39.975-127.375l-9.213-79.449
	c-2.137-18.427-12.682-34.028-27.534-43.151c-14.851,9.124-25.396,24.725-27.534,43.151l-9.213,79.449
	c-5.173,44.599-18.735,87.818-39.975,127.375l0,0c-31.621,58.895-9.879,132.269,48.724,164.43l0,0
	c8.946,4.909,18.355,8.608,27.999,11.11c9.645-2.504,19.054-6.202,27.999-11.11l0,0
	C269.522,454.749,291.264,381.373,259.643,322.478z"/>
<path style="fill:#FFFFFF;" d="M410.216,472.965c-66.831,1.45-122.348-51.223-124.411-118.039l0,0
	c-1.385-44.877-11.248-89.087-29.068-130.298l-31.745-73.411c-7.787-18.01-5.844-37.981,3.78-53.753
	c-9.302,0.323-18.637,2.858-27.193,7.797l0,0c-25.737,14.859-36.255,46.647-24.459,73.925l31.745,73.412
	c17.82,41.211,27.683,85.421,29.068,130.298l0,0c2.062,66.815,57.579,119.489,124.41,118.039l0,0
	c30.625-0.665,59.431-12.814,81.124-33.358C432.818,470.862,421.644,472.717,410.216,472.965L410.216,472.965z"/>
<path style="fill:#D7FA91;" d="M463.858,442.325L463.858,442.325c34.671-57.153,16.813-131.568-40.019-166.762l0,0
	c-38.171-23.638-71.527-54.285-98.306-90.322l-47.704-64.198c-11.833-15.924-30.378-24.228-49.057-23.578
	c-9.624,15.772-11.567,35.743-3.78,53.753l31.745,73.412c17.82,41.211,27.683,85.42,29.068,130.298l0,0
	c2.063,66.815,57.58,119.489,124.411,118.039l0,0c11.429-0.248,22.602-2.104,33.25-5.388
	C451.262,460.195,458.148,451.737,463.858,442.325z"/>
<path style="fill:#FFFFFF;" d="M337.447,382.778c-8.812-15.264-11.476-32.39-8.76-48.511l-0.037,0.021l6.592-47.637l-37.94-15.431
	l-12.56,90.764l0.037-0.021c-2.716,16.121-0.052,33.247,8.76,48.511c24.824,42.997,86.838,51.123,121.946,7.219
	C385.499,423.967,353.6,410.756,337.447,382.778z"/>
<path style="fill:#FF6E37;" d="M430.476,378.08c-0.634-36.778-21.503-62.133-47.869-72.159l0.004-0.003l-47.368-19.267
	l-6.592,47.637l0.037-0.021c-2.716,16.121-0.052,33.247,8.76,48.511c16.153,27.977,48.052,41.189,78.039,34.915
	c2.543-3.179,4.949-6.622,7.184-10.353C427.955,398.519,430.653,388.361,430.476,378.08z"/>
<path d="M152.302,452.093l-0.461-0.002c-0.02,0-0.038,0-0.058,0c-5.484,0-9.947,4.431-9.978,9.922
	c-0.031,5.51,4.412,10.004,9.922,10.036l0.574,0.002c5.51,0,9.979-4.469,9.979-9.979S157.813,452.093,152.302,452.093z"/>
<path d="M117.701,443.167c-34.453-18.907-47.36-62.46-28.768-97.087c2.606-4.856,0.784-10.906-4.071-13.512
	c-4.857-2.607-10.905-0.784-13.512,4.071C47.6,380.873,64.087,436.51,108.1,460.663c1.523,0.836,3.168,1.232,4.792,1.232
	c3.525,0,6.941-1.872,8.756-5.18C124.301,451.885,122.533,445.82,117.701,443.167z"/>
<path d="M487.866,348.381c-8.163-34.013-29.035-62.887-58.773-81.303c-25.382-15.718-48.656-34.684-69.174-56.372
	c-3.79-4.004-10.103-4.179-14.108-0.391c-4.004,3.788-4.178,10.104-0.39,14.107c21.702,22.939,46.319,43,73.165,59.625
	c51.954,32.173,68.437,100.854,36.741,153.103c-19.936,32.86-54.777,52.976-93.2,53.809c-0.816,0.019-1.627,0.027-2.44,0.027
	c-60.013-0.003-109.92-48.132-111.781-108.397c-1.431-46.335-11.485-91.402-29.883-133.95l-31.746-73.411
	c-9.786-22.632-1.064-48.995,20.289-61.323c21.351-12.328,48.544-6.701,63.253,13.09l18.111,24.373
	c3.286,4.424,9.538,5.345,13.96,2.059c4.425-3.287,5.345-9.538,2.059-13.961l-18.111-24.373
	c-17.205-23.153-46.516-32.549-73.204-25.179c-2.737-5.09-6.066-9.749-9.886-13.905c1.201,0.048,2.404,0.09,3.615,0.09
	c11.261,0,22.973-2.067,35.018-6.227c27.634-9.545,47.125-26.826,47.941-27.557c2.147-1.924,3.358-4.682,3.32-7.565
	c-0.038-2.883-1.321-5.609-3.519-7.475c-0.781-0.664-19.449-16.33-46.842-23.493c-23.665-6.188-58.009-6.935-91.97,21.426
	c-5.79-8.334-13.071-16.424-21.769-23.131c-3.965-3.058-9.582-2.703-13.13,0.827L96.159,22.053
	c-1.994,1.983-3.058,4.715-2.932,7.523c0.127,2.809,1.433,5.434,3.596,7.23c9.483,7.872,16.187,19.225,18.729,27.785
	c-16.89,10.753-28.843,28.73-31.3,49.914l-9.213,79.448c-5.049,43.537-18.122,85.191-38.855,123.804
	c-16.546,30.818-20.186,66.258-10.248,99.796c9.937,33.537,32.297,61.274,62.963,78.103c19.853,10.895,41.631,16.341,63.41,16.341
	s43.559-5.447,63.411-16.342c15.792-8.666,29.671-20.528,40.663-34.651c3.843,4.831,8.043,9.428,12.598,13.749
	c24.666,23.402,56.756,36.19,90.65,36.189c0.975,0,1.952-0.011,2.93-0.031c45.281-0.983,86.339-24.688,109.831-63.411
	C490.532,417.594,496.027,382.393,487.866,348.381z M265.766,35.196c-7.47,5.095-18.518,11.604-31.43,15.99
	c-26.932,9.147-50.86,5.562-71.272-10.642C204.695,5.842,246.727,23.613,265.766,35.196z M117.434,29.041l5.496-5.467
	c9.906,9.579,16.925,21.201,20.601,30.884c-3.293,0.422-6.518,1.074-9.656,1.949C130.624,46.951,124.735,37.151,117.434,29.041z
	 M206.118,478.161c-33.695,18.49-73.926,18.489-107.621-0.001c-53.573-29.4-73.64-97.12-44.731-150.961
	c21.928-40.841,35.754-84.898,41.096-130.946l9.213-79.449c2.84-24.492,23.576-42.962,48.233-42.962
	c17.475,0,33.387,9.321,41.995,24.169c-28.456,17.924-39.8,54.025-26.346,85.137l31.746,73.412
	c17.395,40.228,26.901,82.837,28.253,126.644c0.662,21.444,6.406,41.962,16.599,60.181
	C234.717,457.739,221.484,469.728,206.118,478.161z"/>
<path d="M317.778,191.536c1.958,2.637,4.968,4.03,8.019,4.03c2.068,0,4.154-0.641,5.941-1.968c4.425-3.285,5.348-9.536,2.062-13.96
	l-0.257-0.346c-3.286-4.425-9.537-5.346-13.96-2.062c-4.425,3.285-5.348,9.536-2.062,13.96L317.778,191.536z"/>
<path d="M292.315,262.577c-2.667,1.54-4.474,4.224-4.896,7.275l-12.56,90.764c-0.026,0.191-0.048,0.382-0.063,0.572
	c-2.933,18.65,0.642,37.891,10.103,54.276c14.621,25.325,41.888,41.205,71.16,41.441c0.234,0.002,0.463,0.003,0.697,0.003
	c30.418-0.002,57.536-16.168,74.475-44.439c6.244-10.42,9.433-22.372,9.223-34.561c-0.648-37.571-21.349-68.666-54.046-81.219
	c-0.013-0.005-0.024-0.01-0.037-0.015l-85.307-34.698C298.212,260.817,294.982,261.037,292.315,262.577z M378.61,315.064
	c0.147,0.064,0.297,0.126,0.449,0.184c25.435,9.671,40.926,33.225,41.439,63.005c0.146,8.456-2.064,16.741-6.388,23.959
	c-13.243,22.101-34.129,34.739-57.369,34.739c-0.173,0-0.347,0-0.52-0.002c-22.231-0.181-42.937-12.236-54.037-31.463
	c-7.297-12.636-9.982-27.504-7.562-41.864c0.062-0.367,0.103-0.735,0.123-1.103l10.685-77.22L378.61,315.064z"/>
<g>
</g>
<g>
</g>
<g>
</g>
<g>
</g>
<g>
</g>
<g>
</g>
<g>
</g>
<g>
</g>
<g>
</g>
<g>
</g>
<g>
</g>
<g>
</g>
<g>
</g>
<g>
</g>
<g>
</g>
</svg>
