<?xml version="1.0"?>
<svg xmlns="http://www.w3.org/2000/svg" height="512px" viewBox="-46 1 511 511.999" width="512px" class=""><g><g><g><g><g><path d="m84.917969 148.371094c6.707031-5.445313 13.714843-10.511719 21-15.179688l-22.652344-32.613281-20.886719 15.339844zm0 0" fill="#ccd2db" data-original="#E23746" class="" style="fill:#E23746" data-old_color="#e23746"/><path d="m337.035156 100.578125-22.773437 32.613281c7.324219 4.667969 14.371093 9.734375 21.113281 15.179688l22.664062-32.453125zm0 0" fill="#ccd2db" data-original="#E23746" class="" style="fill:#E23746" data-old_color="#e23746"/><path d="m187.980469 62.4375v45.316406c7.300781-1.019531 14.714843-1.558594 22.226562-1.558594s14.925781.539063 22.226563 1.558594v-45.316406zm0 0" fill="#f4b537" data-original="#E23746" class="" style="fill:#E23746" data-old_color="#e23746"/><path d="m217.980469 62.4375h-30v45.316406c7.300781-1.019531 14.714843-1.558594 22.226562-1.558594 2.605469 0 5.195313.089844 7.773438.214844zm0 0" fill="#e59d1f" data-original="#E23746" class="" style="fill:#E23746" data-old_color="#e23746"/><path d="m412.203125 302.574219c0 111.558593-90.4375 201.996093-201.996094 201.996093-111.558593 0-201.996093-90.4375-201.996093-201.996093 0-111.558594 90.4375-201.996094 201.996093-201.996094 111.558594 0 201.996094 90.4375 201.996094 201.996094zm0 0" fill="#8ac2ff" data-original="#CCD2DB" class="" style="fill:#FF3F00" data-old_color="#CCD2DB"/><path d="m37.136719 303.074219c0-107.871094 84.554687-195.984375 191-201.695313-5.90625-.519531-11.886719-.800781-17.929688-.800781-111.558593 0-201.996093 90.4375-201.996093 201.996094 0 111.558593 90.4375 201.996093 201.996093 201.996093 3.691407 0 7.355469-.105468 11-.300781-103.160156-9.074219-184.070312-95.679687-184.070312-201.195312zm0 0" fill="#54a0ff" data-original="#A19D9D" class="active-path" style="fill:#E23746" data-old_color="#A19D9D"/><path d="m210.207031 471.84375c-93.335937 0-169.269531-75.933594-169.269531-169.269531 0-93.335938 75.933594-169.269531 169.269531-169.269531 93.335938 0 169.269531 75.933593 169.269531 169.269531 0 93.335937-75.933593 169.269531-169.269531 169.269531zm0 0" fill="#338def" data-original="#E23746" class="" style="fill:#E23746" data-old_color="#e23746"/><path d="m61.027344 302.574219c0-89.964844 70.550781-163.746094 159.226562-168.964844-3.328125-.195313-6.671875-.304687-10.046875-.304687-93.335937 0-169.269531 75.933593-169.269531 169.269531 0 93.335937 75.933594 169.273437 169.269531 169.273437 3.375 0 6.71875-.113281 10.046875-.308594-88.675781-5.21875-159.226562-79-159.226562-168.964843zm0 0" fill="#1c78d3" data-original="#A19D9D" class="active-path" style="fill:#E23746" data-old_color="#A19D9D"/><path d="m209.046875 449.246094c-80.875 0-146.667969-65.796875-146.667969-146.671875s65.796875-146.667969 146.667969-146.667969c80.875 0 146.671875 65.792969 146.671875 146.667969s-65.796875 146.671875-146.671875 146.671875zm0 0" fill="#e4eaf8" data-original="#F9F9F9" class="" style="fill:#F9F9F9" data-old_color="#F5F6F5"/><path d="m99.425781 302.574219c0-74.601563 55.984375-136.371094 128.148438-145.503907-6.070313-.769531-12.253907-1.167968-18.527344-1.167968-80.875 0-146.671875 65.796875-146.671875 146.671875s65.796875 146.671875 146.671875 146.671875c6.273437 0 12.457031-.398438 18.527344-1.167969-72.160157-9.132813-128.148438-70.902344-128.148438-145.503906zm0 0" fill="#ccd2db" data-original="#E23746" class="" style="fill:#E23746" data-old_color="#e23746"/><path d="m331.640625 66.84375-9.15625 12.707031c-3.414063 4.742188-2.332031 11.414063 2.410156 14.832031l44.707031 32.207032c4.742188 3.414062 11.414063 2.332031 14.832032-2.410156l9.15625-12.710938c3.414062-4.742188 2.332031-11.414062-2.410156-14.828125l-44.710938-32.207031c-4.738281-3.417969-11.410156-2.332032-14.828125 2.410156zm0 0" fill="#e4eaf8" data-original="#F9F9F9" class="" style="fill:#F9F9F9" data-old_color="#F5F6F5"/><path d="m88.773438 66.84375 9.15625 12.707031c3.414062 4.742188 2.332031 11.414063-2.410157 14.832031l-44.707031 32.207032c-4.742188 3.414062-11.414062 2.332031-14.832031-2.410156l-9.15625-12.710938c-3.414063-4.742188-2.332031-11.414062 2.410156-14.828125l44.710937-32.207031c4.738282-3.417969 11.414063-2.332032 14.828126 2.410156zm0 0" fill="#e4eaf8" data-original="#F9F9F9" class="" style="fill:#F9F9F9" data-old_color="#F5F6F5"/><path d="m246.480469 7.574219h-72.546875c-6.792969 0-12.355469 5.558593-12.355469 12.351562v33.972657c0 6.796874 5.558594 12.355468 12.355469 12.355468h72.546875c6.792969 0 12.351562-5.558594 12.351562-12.355468v-33.972657c.003907-6.792969-5.558593-12.351562-12.351562-12.351562zm0 0" fill="#feca57" data-original="#E23746" class="" style="fill:#E23746" data-old_color="#e23746"/><path d="m354.898438 94.382812c-4.742188-3.414062-5.828126-10.089843-2.410157-14.828124l5.113281-7.101563-11.132812-8.019531c-4.738281-3.417969-11.410156-2.332032-14.828125 2.410156l-9.15625 12.707031c-3.414063 4.742188-2.332031 11.414063 2.410156 14.832031l44.710938 32.207032c4.738281 3.414062 11.410156 2.332031 14.828125-2.410156l4.039062-5.609376zm0 0" fill="#ccd2db" data-original="#E23746" class="" style="fill:#E23746" data-old_color="#e23746"/><path d="m56.828125 111.46875c-3.417969-4.742188-2.332031-11.414062 2.410156-14.828125l33.574219-24.1875-4.039062-5.609375c-3.414063-4.742188-10.089844-5.828125-14.828126-2.410156l-44.710937 32.207031c-4.742187 3.414063-5.824219 10.085937-2.410156 14.828125l9.15625 12.710938c3.417969 4.742187 10.089843 5.828124 14.828125 2.410156l11.132812-8.019532zm0 0" fill="#ccd2db" data-original="#E23746" class="" style="fill:#E23746" data-old_color="#e23746"/><path d="m191.582031 53.898438v-33.972657c0-6.792969 5.558594-12.351562 12.355469-12.351562h-30.003906c-6.792969 0-12.351563 5.558593-12.351563 12.351562v33.972657c0 6.796874 5.558594 12.355468 12.351563 12.355468h30.003906c-6.796875 0-12.355469-5.558594-12.355469-12.355468zm0 0" fill="#f4b537" data-original="#E23746" class="" style="fill:#E23746" data-old_color="#e23746"/><path d="m230.300781 302.574219c0 11.097656-8.996093 20.09375-20.09375 20.09375-11.097656 0-20.09375-8.996094-20.09375-20.09375 0-11.097657 8.996094-20.09375 20.09375-20.09375 11.097657 0 20.09375 8.996093 20.09375 20.09375zm0 0" fill="#ff6b6b" data-original="#CCD2DB" class="" style="fill:#FF3F00" data-old_color="#CCD2DB"/><path d="m216.117188 302.574219c0-6.136719 2.757812-11.617188 7.089843-15.304688-3.503906-2.980469-8.039062-4.789062-13-4.789062-11.097656 0-20.09375 8.996093-20.09375 20.09375 0 11.097656 8.996094 20.09375 20.09375 20.09375 4.960938 0 9.496094-1.808594 13-4.789063-4.332031-3.6875-7.089843-9.167968-7.089843-15.304687zm0 0" fill="#ee5253" data-original="#A19D9D" class="active-path" style="fill:#E23746" data-old_color="#A19D9D"/><path d="m209.996094 125.730469c-97.472656 0-176.769532 79.300781-176.769532 176.773437s79.296876 176.769532 176.769532 176.769532 176.773437-79.296876 176.773437-176.769532-79.300781-176.773437-176.773437-176.773437zm0 338.542969c-89.199219 0-161.769532-72.570313-161.769532-161.769532 0-89.203125 72.570313-161.773437 161.769532-161.773437 89.203125 0 161.773437 72.570312 161.773437 161.773437 0 89.199219-72.570312 161.769532-161.773437 161.769532zm0 0" data-original="#000000" class="" style="fill:#000000"/><path d="m209.996094 148.300781c-85.023438 0-154.199219 69.175781-154.199219 154.203125 0 85.023438 69.175781 154.199219 154.199219 154.199219 85.027344 0 154.203125-69.175781 154.203125-154.199219 0-85.027344-69.175781-154.203125-154.203125-154.203125zm75.972656 270.785157-5.90625-10.226563c-2.070312-3.585937-6.660156-4.816406-10.246094-2.746094-3.585937 2.074219-4.816406 6.660157-2.742187 10.246094l5.917969 10.253906c-16.824219 8.574219-35.613282 13.824219-55.496094 14.886719v-11.855469c0-4.144531-3.355469-7.5-7.5-7.5-4.140625 0-7.5 3.355469-7.5 7.5v11.855469c-19.882813-1.0625-38.667969-6.3125-55.492188-14.886719l5.917969-10.253906c2.070313-3.585937.84375-8.171875-2.746094-10.246094-3.589843-2.070312-8.175781-.839843-10.242187 2.746094l-5.90625 10.226563c-16.179688-10.582032-30.035156-24.433594-40.613282-40.613282l10.226563-5.902344c3.585937-2.074218 4.816406-6.660156 2.746094-10.246093-2.074219-3.589844-6.664063-4.816407-10.246094-2.746094l-10.253906 5.917969c-8.574219-16.824219-13.824219-35.609375-14.886719-55.492188h11.855469c4.144531 0 7.5-3.355468 7.5-7.5 0-4.144531-3.355469-7.5-7.5-7.5h-11.855469c1.0625-19.882812 6.3125-38.671875 14.886719-55.496094 11.046875 6.378907 11.410156 6.925782 13.996093 6.925782 2.59375 0 5.113282-1.34375 6.503907-3.75 2.070312-3.589844.839843-8.175782-2.746094-10.246094l-10.226563-5.90625c10.578126-16.179688 24.429688-30.03125 40.613282-40.613281l5.902344 10.226562c2.074218 3.59375 6.664062 4.816407 10.246093 2.746094 3.589844-2.070313 4.816407-6.65625 2.746094-10.246094l-5.917969-10.25c16.824219-8.578125 35.609375-13.828125 55.492188-14.886719v11.855469c0 4.144531 3.355468 7.5 7.5 7.5 4.144531 0 7.5-3.355469 7.5-7.5v-11.855469c19.882812 1.058594 38.671875 6.3125 55.496094 14.886719l-5.921876 10.25c-2.070312 3.589844-.839843 8.175781 2.746094 10.246094 3.585938 2.070313 8.175782.84375 10.246094-2.746094l5.902344-10.226562c16.183594 10.582031 30.035156 24.433593 40.617187 40.613281l-10.226562 5.90625c-3.589844 2.070312-4.816407 6.65625-2.746094 10.246094 2.074219 3.589844 6.660156 4.8125 10.246094 2.746094l10.25-5.921876c8.574219 16.824219 13.828125 35.613282 14.886719 55.496094h-11.855469c-4.144531 0-7.5 3.355469-7.5 7.5 0 4.144532 3.355469 7.5 7.5 7.5h11.855469c-1.058594 19.882813-6.3125 38.667969-14.886719 55.492188l-10.25-5.917969c-3.589844-2.070313-8.175781-.84375-10.246094 2.746094-2.070313 3.585937-.84375 8.171875 2.746094 10.246093l10.226562 5.902344c-10.582031 16.179688-24.433593 30.035156-40.613281 40.613282zm0 0" data-original="#000000" class="" style="fill:#000000"/><path d="m217.496094 275.953125v-65.046875c0-4.140625-3.355469-7.5-7.5-7.5-4.140625 0-7.5 3.359375-7.5 7.5v65.046875c-11.578125 3.277344-20.089844 13.933594-20.089844 26.550781 0 15.214844 12.375 27.589844 27.589844 27.589844s27.59375-12.375 27.59375-27.589844c0-12.617187-8.511719-23.273437-20.09375-26.550781zm-7.5 39.140625c-6.941406 0-12.589844-5.648438-12.589844-12.589844 0-6.945312 5.648438-12.59375 12.589844-12.59375 6.945312 0 12.59375 5.648438 12.59375 12.59375 0 6.941406-5.648438 12.589844-12.59375 12.589844zm0 0" data-original="#000000" class="" style="fill:#000000"/><path d="m.5 302.503906c0 115.515625 93.980469 209.496094 209.496094 209.496094 52.667968 0 103.007812-19.621094 141.75-55.246094 38.503906-35.40625 62.261718-83.492187 66.894531-135.394531.367187-4.128906-2.679687-7.769531-6.804687-8.140625-4.128907-.363281-7.769532 2.679688-8.136719 6.804688-9.007813 100.890624-92.28125 176.976562-193.703125 176.976562-107.246094 0-194.496094-87.253906-194.496094-194.496094 0-107.363281 87.394531-194.496094 194.496094-194.496094 100.378906 0 185.578125 78.261719 193.820312 178.296876.34375 4.128906 3.980469 7.210937 8.09375 6.859374 4.128906-.339843 7.199219-3.964843 6.859375-8.09375-4.515625-54.769531-30.328125-105.675781-72.875-141.992187l11.367188-16.058594 7.75 5.582031c8.101562 5.839844 19.453125 4 25.296875-4.109374l9.15625-12.710938c5.84375-8.109375 3.996094-19.457031-4.109375-25.300781l-44.710938-32.203125c-8.085937-5.832032-19.445312-4.015625-25.296875 4.109375l-9.160156 12.710937c-5.839844 8.105469-3.992188 19.457032 4.113281 25.300782l6.476563 4.664062-11.527344 16.277344c-23.207031-13.507813-48.804688-22.425782-75.523438-26.230469v-21.429687h6.542969c10.949219 0 19.855469-8.90625 19.855469-19.851563v-33.972656c0-10.949219-8.90625-19.855469-19.855469-19.855469h-18.773437c-4.140625 0-7.5 3.355469-7.5 7.5s3.359375 7.5 7.5 7.5h18.773437c2.632813 0 4.855469 2.222656 4.855469 4.855469v33.972656c0 2.628906-2.222656 4.851563-4.855469 4.851563-6.945312 0-65.597656 0-72.546875 0-2.628906 0-4.851562-2.222657-4.851562-4.851563v-33.972656c0-2.632813 2.222656-4.855469 4.851562-4.855469h18.773438c4.144531 0 7.5-3.355469 7.5-7.5s-3.355469-7.5-7.5-7.5h-18.773438c-10.945312 0-19.855468 8.90625-19.855468 19.855469v33.972656c0 10.945313 8.90625 19.855469 19.855468 19.855469h6.546875v21.441406c-27.179687 3.878906-52.691406 12.984375-75.484375 26.277344l-11.566406-16.339844 6.472656-4.664062c8.109375-5.84375 9.953125-17.191407 4.113282-25.300782l-9.15625-12.707031c-5.84375-8.109375-17.191407-9.957031-25.300782-4.113281l-44.707031 32.207031c-8.109375 5.839844-9.953125 17.1875-4.109375 25.296875l9.152344 12.710938c5.855468 8.125 17.210937 9.941406 25.300781 4.109374l7.75-5.578124 11.421875 16.128906c-45.042969 38.457031-73.65625 95.621094-73.65625 159.351562zm45.714844-182.070312c-1.371094.988281-3.359375.679687-4.359375-.710938l-9.15625-12.710937c-.988281-1.371094-.664063-3.367188.710937-4.359375l44.707032-32.207032c1.378906-.988281 3.375-.660156 4.359374.710938l9.15625 12.707031c.992188 1.375.664063 3.371094-.707031 4.363281-3.605469 2.59375-39.296875 28.308594-44.710937 32.207032zm34.832031-6.605469 10.996094 15.53125c-2.085938 1.421875-4.144531 2.882813-6.175781 4.378906l-10.964844-15.484375c5.367187-3.867187 4.140625-2.980468 6.144531-4.425781zm247.3125-29.964844 9.15625-12.707031c1-1.390625 2.988281-1.699219 4.359375-.710938l44.710938 32.207032c1.371093.988281 1.695312 2.984375.707031 4.359375l-9.15625 12.710937c-.988281 1.371094-2.988281 1.699219-4.359375.707032-5.445313-3.921876-40.761719-29.363282-44.707032-32.207032-1.375-.988281-1.699218-2.984375-.710937-4.359375zm10.589844 29.964844 6.140625 4.425781-10.960938 15.480469c-2.035156-1.496094-4.09375-2.957031-6.175781-4.375zm-143.679688-20.300781v-19.847656h29.453125v19.839843c-4.371094-.304687-10.125-.519531-14.984375-.511719-4.804687.003907-10.21875.21875-14.46875.519532zm0 0" data-original="#000000" class="" style="fill:#000000"/></g></g></g></g></g> </svg>
