<?xml version="1.0"?>
<svg xmlns="http://www.w3.org/2000/svg" xmlns:xlink="http://www.w3.org/1999/xlink" version="1.1" id="Capa_1" x="0px" y="0px" viewBox="0 0 512.002 512.002" style="enable-background:new 0 0 512.002 512.002;" xml:space="preserve" width="512px" height="512px" class=""><g><g><g><path style="fill:#D1372D" d="M346.001,72.5v30c0,8.284,6.716,15,15,15s15-6.716,15-15v-30H346.001z" data-original="#D1372D" class="" data-old_color="#d1372d"/><circle style="fill:#D1372D" cx="151" cy="262.5" r="30" data-original="#D1372D" class="" data-old_color="#d1372d"/><path style="fill:#F6F0F0" d="M256.001,52.5v90c24.853,0,45-20.147,45-45S280.854,52.5,256.001,52.5z" data-original="#F6F0F0" class="" data-old_color="#CCCCCC"/><path style="fill:#CCCCCC" d="M271.001,97.5c0-24.853-6.716-45-15-45c-24.853,0-45,20.147-45,45s20.147,45,45,45  C264.285,142.5,271.001,122.352,271.001,97.5z" data-original="#CCCCCC" class="" data-old_color="#EDEBE4"/><path style="fill:#E23E46" d="M293.501,27.5c0-11.046-8.954-20-20-20c-7.535,0-14.09,4.17-17.5,10.325l-10,27.337l10,27.337h37.5  V27.5z" data-original="#E23E46" class="" data-old_color="#e23e46"/><path style="fill:#FFFFFF;" d="M238.501,7.5c-11.046,0-20,8.954-20,20v45h37.5V17.825C252.591,11.67,246.036,7.5,238.501,7.5z" data-original="#FFFFFF" class=""/><path style="fill:#E23E46" d="M281.001,172.5h-10l-30,150l60-30v-100C301.001,181.454,292.047,172.5,281.001,172.5z" data-original="#E23E46" class="" data-old_color="#e23e46"/><path style="fill:#FFFFFF;" d="M231.001,172.5c-11.046,0-20,8.954-20,20v100l60,30v-150H231.001z" data-original="#FFFFFF" class=""/><polygon style="fill:#EA4B33" points="301.001,292.469 271.001,292.469 251.001,337.469 271.001,382.469 301.001,382.469 " data-original="#EA4B33" class="" data-old_color="##EA4B3"/><rect x="211" y="292.47" style="fill:#E23E46" width="60" height="90" data-original="#E23E46" class="" data-old_color="#e23e46"/><path d="M376.001,155h-7.5v-31.29c8.729-3.096,15-11.433,15-21.21v-30c0-4.143-3.357-7.5-7.5-7.5h-30c-4.143,0-7.5,3.357-7.5,7.5v30  c0,9.777,6.271,18.114,15,21.21V185h-46.04c-3.264-11.543-13.886-20.03-26.46-20.03h-50c-12.574,0-23.197,8.487-26.46,20.03h-46.04  v-37.5c0-4.143-3.357-7.5-7.5-7.5s-7.5,3.357-7.5,7.5v7.5h-7.5c-12.406,0-22.5,10.094-22.5,22.5s10.094,22.5,22.5,22.5h7.5v25.755  c-17.096,3.484-30,18.635-30,36.745c0,20.678,16.822,37.5,37.5,37.5s37.5-16.822,37.5-37.5c0-18.11-12.904-33.261-30-36.745V200h45  v182.47c0,4.143,3.357,7.5,7.5,7.5h7.5v99.125l-24.872,8.29c-3.929,1.31-6.053,5.558-4.743,9.487c1.048,3.143,3.974,5.13,7.114,5.13  c0.786,0,1.586-0.125,2.373-0.387l30-10c3.062-1.021,5.128-3.887,5.128-7.115V389.97h45V494.5c0,3.229,2.065,6.095,5.128,7.115  l30,10c0.787,0.262,1.587,0.387,2.373,0.387c3.141,0,6.066-1.987,7.114-5.13c1.31-3.93-0.814-8.178-4.743-9.487l-24.872-8.29V389.97  h7.5c4.143,0,7.5-3.357,7.5-7.5V200h67.5c12.406,0,22.5-10.094,22.5-22.5S388.407,155,376.001,155z M173.501,262.5  c0,12.406-10.094,22.5-22.5,22.5s-22.5-10.094-22.5-22.5s10.094-22.5,22.5-22.5S173.501,250.094,173.501,262.5z M136.001,185  c-4.136,0-7.5-3.364-7.5-7.5s3.364-7.5,7.5-7.5h7.5v15H136.001z M353.501,80h15v22.5c0,4.136-3.364,7.5-7.5,7.5s-7.5-3.364-7.5-7.5  V80z M218.501,192.47c0-6.893,5.607-12.5,12.5-12.5h50c6.893,0,12.5,5.607,12.5,12.5V285h-75V192.47z M218.501,374.97V300h75v74.97  H218.501z M376.001,185h-7.5v-15h7.5c4.136,0,7.5,3.364,7.5,7.5S380.137,185,376.001,185z" data-original="#000000" class="active-path" style="fill:#000000"/><path d="M256.001,150c28.948,0,52.5-23.552,52.5-52.5c0-9.71-2.59-19.05-7.5-27.17V27.5c0-15.163-12.337-27.5-27.5-27.5  c-6.487,0-12.648,2.292-17.5,6.295C251.149,2.292,244.988,0,238.501,0c-15.163,0-27.5,12.337-27.5,27.5v42.83  c-4.91,8.12-7.5,17.46-7.5,27.17C203.501,126.448,227.053,150,256.001,150z M256.001,135c-20.678,0-37.5-16.822-37.5-37.5  c0-6.204,1.461-12.183,4.253-17.5h66.494c2.792,5.317,4.253,11.296,4.253,17.5C293.501,118.178,276.679,135,256.001,135z   M238.501,15c4.54,0,8.732,2.476,10.939,6.46c1.321,2.385,3.834,3.865,6.561,3.865c2.727,0,5.239-1.48,6.561-3.865  c2.207-3.984,6.399-6.46,10.939-6.46c6.893,0,12.5,5.607,12.5,12.5V65h-60V27.5C226.001,20.607,231.608,15,238.501,15z" data-original="#000000" class="active-path" style="fill:#000000"/><circle cx="271" cy="202.5" r="7.5" data-original="#000000" class="active-path" style="fill:#000000"/><circle cx="271" cy="232.5" r="7.5" data-original="#000000" class="active-path" style="fill:#000000"/><circle cx="271" cy="262.5" r="7.5" data-original="#000000" class="active-path" style="fill:#000000"/></g></g></g> </svg>
